<svg width="1118" height="339" viewBox="0 0 1118 339" fill="none" xmlns="http://www.w3.org/2000/svg">
<path d="M-7.60095 188.948C218.126 189.868 309.002 236.957 349.88 280.86C395.5 329.859 399.283 396.844 431.355 391.723C451.892 388.445 469.326 357.938 499.558 293.392C591.237 97.6608 582.124 55.4353 637.632 27.6061C715.387 -11.3898 786.999 44.56 912.908 6.20139C1005.38 -21.9744 1068.83 -83.2428 1109.08 -133M-11.1296 197.234C208.448 198.296 302.826 242.139 344.763 282.119C391.628 326.799 394.544 390.407 425.993 384.274C446.212 380.331 463.342 350.383 492.62 288.103C581.602 98.8558 573.393 55.8897 628.654 28.7004C707.179 -9.70344 778.065 51.8406 906.157 15.5612C908.95 14.7701 911.692 13.9693 914.425 13.1228C1004.64 -14.8711 1069.23 -76.4523 1110.7 -126.284M-14.6529 205.52C198.753 206.724 296.551 247.22 339.661 283.375C387.711 323.675 389.845 383.973 420.664 376.837C440.572 372.229 457.398 342.836 485.702 282.826C571.941 100.073 564.572 56.2434 619.688 29.8049C698.854 -8.17065 769.168 59.1346 899.403 24.8915C902.26 24.1407 905.108 23.3927 907.931 22.5571C1000.07 -4.72239 1068.47 -68.2554 1112.32 -119.606M-18.1995 213.811C189.06 215.169 290.119 252.199 334.55 284.639C383.679 320.511 385.167 377.553 415.342 369.425C434.947 364.145 451.442 335.325 478.786 277.576C562.271 101.29 555.792 56.6826 610.7 30.9287C690.573 -6.53412 760.262 66.4472 892.609 34.198C895.548 33.4827 898.481 32.7627 901.383 31.973C995.693 6.29139 1067.65 -60.0885 1113.88 -112.957M-21.9773 221.629C179.076 223.257 283.235 256.817 329.178 285.703C379.232 317.172 380.284 371.034 409.798 361.939C429.098 355.994 445.25 327.732 471.59 272.217C552.214 102.314 546.607 56.8892 601.281 31.8276C681.855 -5.10749 750.925 73.6571 885.325 43.4235C888.342 42.7409 891.36 42.0574 894.368 41.3004C990.677 16.773 1066.29 -51.9919 1114.88 -106.402M-25.7604 229.431C169.086 231.336 276.12 261.325 323.813 286.755C374.562 313.818 375.406 364.515 404.269 354.461C423.267 347.843 439.069 320.148 464.401 266.863C542.158 103.334 537.431 57.0996 591.858 32.7219C673.131 -3.67656 741.593 80.8814 878.028 52.6153C881.128 51.9734 884.23 51.3354 887.329 50.599C985.627 27.207 1064.92 -43.9325 1115.86 -99.8757M-29.5466 237.216C159.085 239.412 268.721 265.741 318.436 287.807C369.582 310.51 370.551 357.985 398.735 346.991C417.436 339.697 432.883 312.568 457.203 261.519C532.081 104.36 528.243 57.3172 582.417 33.6204C664.405 -2.24322 732.247 88.1217 870.707 61.7972C873.899 61.1895 877.075 60.5947 880.258 59.887C980.536 37.6163 1063.51 -35.8902 1116.81 -93.3632M-33.3392 244.984C149.077 247.473 253.385 278.23 313.066 288.851C354.915 314.612 365.699 351.453 393.215 339.53C411.62 331.554 426.714 305.007 450.015 256.169C522.002 105.372 519.055 57.5307 572.971 34.5046C655.675 -0.814183 722.899 95.3653 863.372 70.9502C866.639 70.382 869.911 69.8222 873.188 69.144C975.445 47.9715 1062.12 -27.8817 1117.76 -86.8928M-37.136 252.736C139.067 255.526 245.309 283.988 307.698 289.891C349.026 312.38 360.852 344.917 387.704 332.075C405.813 323.415 420.549 297.455 442.833 250.844C511.907 106.408 509.875 57.7676 563.528 35.4067C646.951 0.638828 713.55 102.641 856.036 80.1029C859.382 79.5741 862.737 79.0526 866.109 78.4019C970.341 58.3097 1060.69 -19.8756 1118.7 -80.4257M-40.9318 260.47C129.05 263.568 237.228 289.734 302.331 290.926C343.141 310.15 356.015 338.381 382.204 324.63C400.013 315.281 414.395 289.907 435.656 245.519C501.835 107.42 500.696 58.0031 554.075 36.3025C638.229 2.08825 704.188 109.92 848.69 89.232C852.116 88.7404 855.557 88.2545 859.019 87.6337C965.224 68.6082 1059.26 -11.9031 1119.63 -73.9913M-44.7243 268.187C119.039 271.598 229.151 295.472 296.971 291.953C337.265 307.917 351.181 331.842 376.711 317.194C394.217 307.151 408.249 282.366 428.489 240.205C491.751 108.453 491.517 58.2474 544.617 37.198C629.503 3.54815 694.82 117.213 841.335 98.3447C844.844 97.8931 848.367 97.4397 851.918 96.8516C960.1 78.8743 1057.82 -3.95331 1120.55 -67.5785M-48.5159 275.888C109.015 279.62 221.085 301.199 291.618 292.97C331.399 305.679 346.353 325.301 371.227 309.761C388.423 299.022 402.11 274.834 421.318 234.882C481.654 109.464 482.331 58.4832 535.153 38.077C620.78 4.9951 685.436 124.494 833.968 107.426C837.562 107.012 841.155 106.598 844.808 106.029C954.964 89.0888 1056.37 3.9552 1121.46 -61.21M-52.2968 283.569C99.0084 287.632 213.01 306.925 286.278 294.001C325.546 303.462 341.529 318.778 365.772 302.354C382.65 290.919 395.994 267.325 414.172 229.588C471.587 110.491 473.165 58.7429 525.692 38.9764C612.061 6.47561 676.05 131.819 826.61 116.515C830.281 116.144 833.972 115.757 837.717 115.224C949.849 99.2992 1054.94 11.8801 1122.38 -54.8337M-56.0557 291.229C89.0096 295.635 204.955 312.642 280.951 295.019C319.706 301.239 336.713 312.259 360.329 294.952C376.883 282.818 389.891 259.825 407.038 224.298C461.497 111.521 463.998 58.9992 516.234 39.8683C603.352 7.95441 666.659 139.152 819.246 125.591C823.002 125.258 826.779 124.905 830.606 124.404C944.715 109.494 1053.49 19.7715 1123.3 -48.483M-59.8092 298.875C79.0287 303.63 196.924 318.355 275.645 296.043C313.891 299.029 331.914 305.752 354.906 287.562C371.128 274.733 383.808 252.337 399.904 219.02C451.413 112.551 454.83 59.2738 506.769 40.7639C594.637 9.44808 657.25 146.482 811.882 134.665C815.717 134.37 819.578 134.048 823.494 133.58C939.59 119.668 1052.03 27.6605 1124.18 -42.1316M-63.5236 306.499C69.0774 311.619 188.92 324.068 270.368 297.072C308.107 296.828 327.134 299.263 349.519 280.2C365.4 266.674 377.754 244.874 392.828 213.757C441.378 113.59 445.71 59.5538 497.352 41.6607C585.971 10.9558 647.88 153.85 804.557 143.736C808.474 143.482 812.419 143.191 816.442 142.747C934.509 129.843 1050.62 35.5576 1125.12 -35.7728M-66.3079 313.933C60.0088 319.595 181.75 329.943 265.891 298.331C303.089 294.918 323.12 293.082 344.893 273.14C360.414 258.92 372.446 237.697 386.469 208.763C432.019 114.802 437.253 59.9343 488.57 42.695C577.901 12.6827 639.105 161.741 797.782 153.53C801.779 153.323 805.808 153.066 809.904 152.663C929.922 140.856 1049.63 44.3013 1126.43 -28.592M-69.0573 321.384C50.9771 327.585 174.622 335.844 261.445 299.598C298.131 292.991 319.127 286.901 340.289 266.076C355.453 251.168 367.162 230.513 380.128 203.75C422.677 116.001 428.81 60.3027 479.799 43.7091C569.846 14.3967 630.342 169.638 791.025 163.312C795.097 163.153 799.212 162.931 803.396 162.564C925.364 151.884 1048.64 53.0726 1127.74 -21.3899M-71.7993 328.842C41.9486 335.559 159.48 318.902 257.006 300.846C293.5 294.089 315.128 280.684 335.691 258.971C350.483 243.365 361.878 223.285 373.793 198.702C413.336 117.167 420.366 60.6546 471.028 44.7C561.788 16.1189 621.578 177.55 784.279 173.109C788.427 172.995 792.635 172.805 796.902 172.477C920.818 162.915 1047.66 61.8503 1129.06 -14.1695M-74.5423 336.317C32.9444 343.56 156.711 343.043 252.569 302.098C287.148 287.327 311.117 274.464 331.089 251.854C345.504 235.551 356.587 216.048 367.453 193.645C404 118.335 411.917 61.0135 462.254 45.6912C553.725 17.8464 612.807 185.467 777.537 182.9C781.769 182.832 786.057 182.672 790.416 182.383C916.33 173.768 1046.69 70.6165 1130.38 -6.96449M-77.2738 343.806C23.9349 351.558 151.147 351.319 248.138 303.341C282.541 286.321 307.1 268.221 326.487 244.713C340.516 227.711 351.297 208.78 361.111 188.566C394.66 119.487 403.43 61.231 453.478 46.663C545.732 19.8103 603.963 193.549 770.807 192.686C775.112 192.671 779.489 192.539 783.935 192.288C911.794 184.863 1045.72 79.3902 1131.69 0.252636M-80 351.31C14.9402 359.554 146.187 359.385 243.705 304.577C390.714 221.948 361.1 71.3101 444.704 47.6239C540.008 20.6221 598.225 210.796 777.467 202.188C907.264 195.956 1044.76 88.1576 1133 7.4608" stroke="white" stroke-opacity="0.2" stroke-width="2" stroke-miterlimit="10"/>
</svg>
