<svg width="12" height="13" viewBox="0 0 12 13" fill="none" xmlns="http://www.w3.org/2000/svg">
<path d="M5.64206 0.771768C5.79737 0.633712 5.94406 0.633712 6.08211 0.771768L11.5439 6.25948C11.6993 6.39753 11.6993 6.53559 11.5439 6.67364L6.08211 12.1614C5.94406 12.2994 5.79737 12.2994 5.64206 12.1614L5.46086 11.9543C5.32281 11.8162 5.32281 11.6695 5.46086 11.5142L10.0944 6.90661H0.361437C0.154353 6.90661 0.0508118 6.80307 0.0508118 6.59599V6.33713C0.0508118 6.13005 0.154353 6.02651 0.361437 6.02651H10.0944L5.46086 1.4189C5.32281 1.26359 5.32281 1.11691 5.46086 0.978851L5.64206 0.771768Z" fill="#f2994a"/>
</svg>
