<svg width="14" height="14" viewBox="0 0 14 14" fill="none" xmlns="http://www.w3.org/2000/svg">
<path d="M2.08975 2.55227C2.08975 2.55227 2.40141 2.24062 3.02471 1.61731C3.64801 0.994012 4.84518 0.682362 6.61622 0.682362C8.38725 0.682362 9.89608 1.30566 11.1427 2.55227C12.3893 3.79887 13.0126 5.30769 13.0126 7.07873C13.0126 8.84977 12.3893 10.3586 11.1427 11.6052C9.89608 12.8518 8.38725 13.4751 6.61622 13.4751C4.84518 13.4751 3.33636 12.8518 2.08975 11.6052C0.843151 10.3586 0.219849 8.84977 0.219849 7.07873C0.219849 5.30769 0.843151 3.79887 2.08975 2.55227ZM12.1872 7.07873C12.1872 5.53122 11.6413 4.21584 10.5495 3.13258C9.45761 2.04933 8.14653 1.5077 6.61622 1.5077C5.06871 1.5077 3.75333 2.05363 2.67007 3.14548C1.58681 4.23733 1.04519 5.54842 1.04519 7.07873C1.04519 8.62624 1.59111 9.94162 2.68297 11.0249C3.77482 12.1081 5.0859 12.6498 6.61622 12.6498C8.16373 12.6498 9.47911 12.1038 10.5624 11.012C11.6456 9.92013 12.1872 8.60904 12.1872 7.07873ZM8.34427 9.34841L6.25513 7.82669C6.16916 7.77511 6.12617 7.69773 6.12617 7.59457V3.46788C6.12617 3.26154 6.22934 3.15837 6.43567 3.15837H6.79676C7.00309 3.15837 7.10626 3.26154 7.10626 3.46788V7.23348L8.93748 8.57465C9.09223 8.69502 9.10942 8.83257 8.98906 8.98732L8.78273 9.29682C8.66237 9.45158 8.51621 9.46877 8.34427 9.34841Z" fill="#f2994a"/>
</svg>
